<svg width="55" height="54" viewBox="0 0 55 54" fill="none" xmlns="http://www.w3.org/2000/svg">
<g clip-path="url(#clip0_677_675)">
<path d="M27.1422 0C12.2382 0 0.15625 12.0883 0.15625 27C0.15625 41.9117 12.2382 54 27.1422 54C42.0462 54 54.1281 41.9117 54.1281 27C54.1281 12.0883 42.0462 0 27.1422 0ZM37.4374 13.75L33.705 13.7516C30.7781 13.7516 30.2121 15.1432 30.2121 17.185V21.6873H37.1917L37.1884 28.739H30.2127V46.8355H22.9327V28.739H16.847V21.6873H22.9327V16.4867C22.9327 10.4514 26.6182 7.16446 31.9988 7.16446L37.438 7.17275V13.75H37.4374Z" fill="#173B99"/>
</g>
<defs>
<clipPath id="clip0_677_675">
<rect width="53.9719" height="54" fill="white" transform="translate(0.15625)"/>
</clipPath>
</defs>
</svg>
