<svg width="55" height="54" viewBox="0 0 55 54" fill="none" xmlns="http://www.w3.org/2000/svg">
<g clip-path="url(#clip0_677_663)">
<path d="M35.1449 14.3667H19.0588C16.4913 14.3667 14.4023 16.4567 14.4023 19.0256V35.1201C14.4023 37.689 16.4913 39.7796 19.0588 39.7796H35.1449C37.7125 39.7796 39.802 37.6896 39.802 35.1201V19.0256C39.802 16.4567 37.7131 14.3667 35.1449 14.3667ZM27.1019 35.439C22.4917 35.439 18.7408 31.6861 18.7408 27.0729C18.7408 22.4603 22.4917 18.7074 27.1019 18.7074C31.7127 18.7074 35.4636 22.4603 35.4636 27.0729C35.4636 31.6855 31.7121 35.439 27.1019 35.439ZM35.7324 20.437C34.6411 20.437 33.7535 19.549 33.7535 18.4577C33.7535 17.3664 34.6411 16.4784 35.7324 16.4784C36.8232 16.4784 37.7107 17.3664 37.7107 18.4577C37.7107 19.549 36.8232 20.437 35.7324 20.437Z" fill="#E7A809"/>
<path d="M27.1 22.2427C24.4386 22.2427 22.2715 24.4097 22.2715 27.0725C22.2715 29.7364 24.4386 31.904 27.1 31.904C29.7625 31.904 31.9278 29.7364 31.9278 27.0725C31.9278 24.4103 29.7619 22.2427 27.1 22.2427Z" fill="#E7A809"/>
<path d="M27.1012 0C12.1978 0 0.115234 12.0889 0.115234 27C0.115234 41.9111 12.1978 54 27.1012 54C42.0045 54 54.0871 41.9111 54.0871 27C54.0871 12.0889 42.0045 0 27.1012 0ZM43.334 35.12C43.334 39.6388 39.6606 43.3141 35.1442 43.3141H19.0581C14.5423 43.3141 10.8684 39.6388 10.8684 35.12V19.0256C10.8684 14.5074 14.5423 10.8315 19.0581 10.8315H35.1442C39.6606 10.8315 43.334 14.5074 43.334 19.0256V35.12Z" fill="#E7A809"/>
</g>
<defs>
<clipPath id="clip0_677_663">
<rect width="53.9719" height="54" fill="white" transform="translate(0.115234)"/>
</clipPath>
</defs>
</svg>
