<svg width="55" height="54" viewBox="0 0 55 54" fill="none" xmlns="http://www.w3.org/2000/svg">
<path fill-rule="evenodd" clip-rule="evenodd" d="M30.3054 18.8848C31.3562 19.1088 32.1615 19.5083 32.8497 20.153C33.7352 20.9895 34.2205 22.002 34.4338 23.4567C34.578 24.405 34.519 24.778 34.183 25.0872C33.8684 25.3749 33.2869 25.3855 32.9349 25.1138C32.6789 24.9218 32.5988 24.7193 32.5402 24.1705C32.471 23.4402 32.3428 22.9289 32.124 22.4547C31.6547 21.4477 30.8278 20.9254 29.4305 20.755C28.7744 20.6748 28.577 20.6006 28.3637 20.35C27.9741 19.8863 28.1238 19.135 28.6622 18.8578C28.865 18.7566 28.9502 18.746 29.3984 18.7726C29.6763 18.7886 30.087 18.8367 30.3054 18.8848ZM29.1695 14.8614C32.4074 15.3356 34.9141 16.8383 36.5573 19.2788C37.4803 20.6537 38.0563 22.2682 38.2536 24C38.3228 24.6341 38.3228 25.7905 38.2481 25.9824C38.1786 26.1634 37.9547 26.4085 37.7628 26.5098C37.5549 26.6165 37.1122 26.6055 36.8668 26.4777C36.4561 26.2697 36.3334 25.9394 36.3334 25.0442C36.3334 23.6642 35.9758 22.2092 35.3573 21.0794C34.6531 19.7897 33.6289 18.7241 32.3808 17.9833C31.3085 17.3437 29.7244 16.8695 28.2789 16.7522C27.7561 16.7096 27.4681 16.6029 27.2708 16.3738C26.9667 16.0275 26.9347 15.5583 27.1906 15.1694C27.4677 14.739 27.8944 14.6694 29.1695 14.8614ZM16.6075 11.5737C16.7943 11.6378 17.0823 11.7868 17.2476 11.8935C18.2608 12.5651 21.0825 16.1726 22.0055 17.9736C22.5335 19.0021 22.7097 19.764 22.5444 20.3289C22.3737 20.9364 22.0911 21.2562 20.8266 22.2737C20.3198 22.6838 19.845 23.1048 19.7704 23.217C19.5785 23.4942 19.4238 24.0376 19.4238 24.4215C19.4292 25.3112 20.0052 26.9262 20.7625 28.1677C21.349 29.1322 22.3998 30.3682 23.44 31.317C24.6616 32.4363 25.7389 33.1982 26.9554 33.8002C28.5184 34.5781 29.4731 34.7752 30.1717 34.4503C30.3476 34.3702 30.5344 34.2638 30.593 34.2157C30.6461 34.1677 31.0572 33.6669 31.505 33.1125C32.369 32.0254 32.5663 31.8495 33.1588 31.647C33.911 31.3913 34.6788 31.4605 35.4526 31.8549C36.0395 32.1587 37.3197 32.9527 38.1461 33.5281C39.2344 34.29 41.5598 36.1872 41.8748 36.5656C42.4293 37.2478 42.5254 38.1215 42.1522 39.0863C41.7576 40.1039 40.2215 42.0116 39.1492 42.8271C38.1786 43.5624 37.4904 43.8446 36.5834 43.8872C35.8367 43.9244 35.5272 43.8607 34.5726 43.4662C27.084 40.381 21.1045 35.7771 16.3571 29.4515C13.8769 26.1478 11.9883 22.7213 10.6976 19.167C9.94536 17.0944 9.90826 16.1937 10.5268 15.1331C10.7937 14.6855 11.9297 13.5772 12.7565 12.9592C14.1328 11.9361 14.7674 11.5577 15.2742 11.451C15.6208 11.3763 16.2238 11.4349 16.6075 11.5737ZM28.8014 10.9983C30.6364 11.2274 32.119 11.6695 33.7461 12.4639C35.3463 13.2473 36.3705 13.9881 37.7253 15.336C38.9949 16.6096 39.6991 17.574 40.4458 19.0713C41.486 21.16 42.078 23.6436 42.1792 26.3769C42.2168 27.3092 42.1898 27.5172 41.9764 27.7838C41.5712 28.3006 40.6802 28.2154 40.3762 27.6345C40.2801 27.4425 40.2535 27.2776 40.2215 26.5313C40.1679 25.3855 40.0882 24.6451 39.928 23.7604C39.2985 20.2913 37.6342 17.5205 34.9778 15.5326C32.7641 13.87 30.4758 13.06 27.4782 12.8841C26.4646 12.8254 26.2887 12.7883 26.0593 12.6124C25.6326 12.2766 25.6111 11.4881 26.0218 11.1202C26.2727 10.8911 26.4485 10.8591 27.318 10.8856C27.7721 10.9021 28.4387 10.9557 28.8014 10.9983ZM27.1852 0C42.089 0 54.1711 12.0884 54.1711 27C54.1711 41.9116 42.089 54 27.1852 54C12.2813 54 0.199219 41.9116 0.199219 27C0.199219 12.0884 12.2813 0 27.1852 0Z" fill="#7F4DA0"/>
</svg>
