<svg width="55" height="54" viewBox="0 0 55 54" fill="none" xmlns="http://www.w3.org/2000/svg">
<g clip-path="url(#clip0_677_668)">
<g clip-path="url(#clip1_677_668)">
<path d="M27.0563 54C41.9602 54 54.0422 41.9117 54.0422 27C54.0422 12.0883 41.9602 0 27.0563 0C12.1523 0 0.0703125 12.0883 0.0703125 27C0.0703125 41.9117 12.1523 54 27.0563 54Z" fill="#6EBF3A"/>
<path d="M39.4336 14.8773C36.4078 11.8488 32.3854 10.1806 28.1014 10.1792C19.2731 10.1792 12.0879 17.3654 12.0834 26.1986C12.0834 29.0237 12.8212 31.7777 14.2205 34.2061L11.9492 42.5089L20.4397 40.2798C22.7803 41.5575 25.4134 42.2311 28.0966 42.2311H28.1014C36.9276 42.2311 44.1148 35.0448 44.1193 26.2106C44.1196 21.9292 42.457 17.9047 39.4336 14.8773ZM28.1014 39.5269H28.0966C25.7079 39.5245 23.3649 38.8822 21.3212 37.6693L20.8324 37.3791L15.7966 38.7025L17.1406 33.7884L16.822 33.2852C15.49 31.166 14.7855 28.7139 14.7879 26.1983C14.7903 18.8564 20.763 12.8827 28.1058 12.8827C31.661 12.8851 35.0058 14.2717 37.5191 16.7887C40.032 19.3057 41.4169 22.6505 41.4144 26.2089C41.4124 33.5538 35.4397 39.5269 28.1014 39.5269ZM35.404 29.553C35.0037 29.3541 33.0366 28.3859 32.6703 28.2516C32.304 28.1173 32.0352 28.0499 31.7695 28.4504C31.5038 28.8506 30.7369 29.7519 30.5024 30.0205C30.2672 30.2887 30.0352 30.3224 29.6352 30.1211C29.2349 29.9195 27.9438 29.498 26.4151 28.1341C25.2269 27.0721 24.4219 25.761 24.1919 25.3605C23.9571 24.959 24.1655 24.7433 24.3642 24.543C24.5465 24.3644 24.7666 24.0756 24.9657 23.842C25.1645 23.6081 25.2314 23.4415 25.366 23.1743C25.5002 22.9071 25.4329 22.6735 25.3323 22.4733C25.2317 22.272 24.4315 20.3015 24.0985 19.5008C23.7751 18.7194 23.4445 18.8248 23.1977 18.8128C22.9653 18.8022 22.6972 18.7998 22.4311 18.7998C22.1654 18.7998 21.7294 18.8994 21.3652 19.3006C20.9961 19.7011 19.9635 20.6693 19.9635 22.6395C19.9635 24.6097 21.3985 26.5129 21.5976 26.7804C21.7964 27.0477 24.4198 31.089 28.4327 32.8246C29.3887 33.2368 30.1337 33.4837 30.7159 33.6682C31.6741 33.9728 32.5484 33.9296 33.2388 33.8265C34.0051 33.7115 35.6059 32.8583 35.9385 31.9233C36.2719 30.9884 36.2719 30.1877 36.1709 30.0201C36.0696 29.8525 35.8063 29.7519 35.404 29.553Z" fill="white"/>
</g>
</g>
<defs>
<clipPath id="clip0_677_668">
<rect width="53.9719" height="54" fill="white" transform="translate(0.0722656)"/>
</clipPath>
<clipPath id="clip1_677_668">
<rect width="53.9719" height="54" fill="white" transform="translate(0.0722656)"/>
</clipPath>
</defs>
</svg>
